  0
SECTION
  2
HEADER
  9
$ACADVER
  1
AC1009
  0
ENDSEC
  0
SECTION
  2
TABLES
  0
TABLE
  2
LTYPE
  5
5
100
AcDbSymbolTable
 70
     9
  0
LTYPE
  5
12
100
AcDbSymbolTableRecord
100
AcDbLinetypeTableRecord
  2
BYBLOCK
 70
     0
  3

 72
    65
 73
     0
 40
0.0
  0
LTYPE
  5
13
100
AcDbSymbolTableRecord
100
AcDbLinetypeTableRecord
  2
BYLAYER
 70
     0
  3

 72
    65
 73
     0
 40
0.0
  0
LTYPE
  5
14
100
AcDbSymbolTableRecord
100
AcDbLinetypeTableRecord
  2
CONTINUOUS
 70
     0
  3
Solid line
 72
    65
 73
     0
 40
0.0
  0
LTYPE
  5
3C
100
AcDbSymbolTableRecord
100
AcDbLinetypeTableRecord
  2
ACAD_ISO02W100
 70
     0
  3
ISO Strichlinie __ __ __ __ __ __ __ __ __ __ _
 72
    65
 73
     2
 40
15.0
 49
12.0
 49
-3.0
  0
LTYPE
  5
3D
100
AcDbSymbolTableRecord
100
AcDbLinetypeTableRecord
  2
ACAD_ISO07W100
 70
     0
  3
ISO Punktiert . . . . . . . . . . . . . . . . .
 72
    65
 73
     2
 40
3.5
 49
0.5
 49
-3.0
  0
LTYPE
  5
50
100
AcDbSymbolTableRecord
100
AcDbLinetypeTableRecord
  2
ACAD_ISO03W100
 70
     0
  3
ISO Gestrichelt mit Abstand __    __    __    _
 72
    65
 73
     2
 40
30.0
 49
12.0
 49
-18.0
  0
LTYPE
  5
51
100
AcDbSymbolTableRecord
100
AcDbLinetypeTableRecord
  2
ACAD_ISO04W100
 70
     0
  3
ISO Lang gestrichelt punktiert ____ . ____ . __
 72
    65
 73
     4
 40
30.5
 49
24.0
 49
-3.0
 49
0.5
 49
-3.0
  0
LTYPE
  5
52
100
AcDbSymbolTableRecord
100
AcDbLinetypeTableRecord
  2
ACAD_ISO08W100
 70
     0
  3
ISO Lang kurz gestrichelt ____ __ ____ __ ____ 
 72
    65
 73
     4
 40
36.0
 49
24.0
 49
-3.0
 49
6.0
 49
-3.0
  0
LTYPE
  5
53
100
AcDbSymbolTableRecord
100
AcDbLinetypeTableRecord
  2
ACAD_ISO10W100
 70
     0
  3
ISO Strichpunktlinie __ . __ . __ . __ . __ . _
 72
    65
 73
     4
 40
18.5
 49
12.0
 49
-3.0
 49
0.5
 49
-3.0
  0
LTYPE
  5
54
100
AcDbSymbolTableRecord
100
AcDbLinetypeTableRecord
  2
ACAD_ISO05W100
 70
     0
  3
ISO Lang gestrichelt doppelpunktiert ____ .. __
 72
    65
 73
     8
 40
37.5
 49
24.0
 49
-3.0
 49
0.5
 49
-3.0
 49
0.5
 49
-3.0
 49
0.5
 49
-3.0
  0
LTYPE
  5
55
100
AcDbSymbolTableRecord
100
AcDbLinetypeTableRecord
  2
ACAD_ISO06W100
 70
     0
  3
ISO Lang gestrichelt dreifachpunktiert ____ ...
 72
    65
 73
     8
 40
37.5
 49
24.0
 49
-3.0
 49
0.5
 49
-3.0
 49
0.5
 49
-3.0
 49
0.5
 49
-3.0
  0
ENDTAB
  0
ENDSEC
  0
LAYER
  2
1
 70
0
 62
7
  6
CONTINUOUS
  0
SECTION
  2
ENTITIES
  0
ARC
  8
1
 62
3
 10
-17.5226
 20
-147.852
 40
18.1502
 50
269.211
 51
353.202
  0
LINE
  8
1
 62
3
 10
0.5
 20
-150.0
 11
2.0
 21
-151.0
  0
LINE
  8
1
 62
3
 10
2.0
 20
-151.0
 11
2.0
 21
-231.0
  0
LINE
  8
1
 62
3
 10
2.0
 20
-231.0
 11
112.0
 21
-231.0
  0
LINE
  8
1
 62
3
 10
112.0
 20
-231.0
 11
112.0
 21
-151.0
  0
LINE
  8
1
 62
3
 10
112.0
 20
-151.0
 11
113.5
 21
-150.0
  0
ARC
  8
1
 62
3
 10
131.523
 20
-147.852
 40
18.1502
 50
186.798
 51
270.789
  0
LINE
  8
1
 62
3
 10
131.773
 20
-166.0
 11
180.0
 21
-166.0
  0
LINE
  8
1
 62
3
 10
180.0
 20
-166.0
 11
180.0
 21
-149.0
  0
LINE
  8
1
 62
3
 10
180.0
 20
-149.0
 11
195.0
 21
-149.0
  0
LINE
  8
1
 62
3
 10
195.0
 20
-149.0
 11
195.0
 21
75.0
  0
LINE
  8
1
 62
3
 10
195.0
 20
75.0
 11
180.0
 21
75.0
  0
LINE
  8
1
 62
3
 10
180.0
 20
75.0
 11
180.0
 21
92.0
  0
LINE
  8
1
 62
3
 10
180.0
 20
92.0
 11
131.439
 21
92.0
  0
ARC
  8
1
 62
3
 10
130.936
 20
74.5072
 40
17.5
 50
88.3543
 51
175.107
  0
LINE
  8
1
 62
3
 10
113.5
 20
76.0
 11
112.0
 21
77.0
  0
LINE
  8
1
 62
3
 10
112.0
 20
77.0
 11
112.0
 21
157.0
  0
LINE
  8
1
 62
3
 10
112.0
 20
157.0
 11
2.0
 21
157.0
  0
LINE
  8
1
 62
3
 10
2.0
 20
157.0
 11
2.0
 21
77.0
  0
LINE
  8
1
 62
3
 10
2.0
 20
77.0
 11
0.5
 21
76.0
  0
ARC
  8
1
 62
3
 10
-17.5226
 20
73.8515
 40
18.1502
 50
6.79822
 51
90.7892
  0
LINE
  8
1
 62
3
 10
-17.7726
 20
92.0
 11
-66.0
 21
92.0
  0
LINE
  8
1
 62
3
 10
-66.0
 20
92.0
 11
-66.0
 21
75.0
  0
LINE
  8
1
 62
3
 10
-66.0
 20
75.0
 11
-81.0
 21
75.0
  0
LINE
  8
1
 62
3
 10
-81.0
 20
75.0
 11
-81.0
 21
-149.0
  0
LINE
  8
1
 62
3
 10
-81.0
 20
-149.0
 11
-66.0
 21
-149.0
  0
LINE
  8
1
 62
3
 10
-66.0
 20
-149.0
 11
-66.0
 21
-166.0
  0
LINE
  8
1
 62
3
 10
-66.0
 20
-166.0
 11
-17.7726
 21
-166.0
  0
LINE
  8
1
  6
ACAD_ISO05W100
 62
5
 10
0.0
 20
75.0
 11
114.0
 21
75.0
  0
LINE
  8
1
  6
ACAD_ISO05W100
 62
5
 10
114.0
 20
137.0
 11
114.0
 21
-211.0
  0
LINE
  8
1
  6
ACAD_ISO05W100
 62
5
 10
114.0
 20
-149.0
 11
0.0
 21
-149.0
  0
LINE
  8
1
  6
ACAD_ISO05W100
 62
5
 10
0.0
 20
-211.0
 11
0.0
 21
137.0
  0
LINE
  8
1
  6
ACAD_ISO05W100
 62
5
 10
0.0
 20
-149.0
 11
-62.0
 21
-149.0
  0
LINE
  8
1
  6
ACAD_ISO05W100
 62
5
 10
-62.0
 20
-149.0
 11
-62.0
 21
75.0
  0
LINE
  8
1
  6
ACAD_ISO05W100
 62
5
 10
-62.0
 20
75.0
 11
0.0
 21
75.0
  0
LINE
  8
1
  6
ACAD_ISO05W100
 62
5
 10
0.0
 20
137.0
 11
114.0
 21
137.0
  0
LINE
  8
1
  6
ACAD_ISO05W100
 62
5
 10
114.0
 20
75.0
 11
176.0
 21
75.0
  0
LINE
  8
1
  6
ACAD_ISO05W100
 62
5
 10
176.0
 20
75.0
 11
176.0
 21
-149.0
  0
LINE
  8
1
  6
ACAD_ISO05W100
 62
5
 10
176.0
 20
-149.0
 11
114.0
 21
-149.0
  0
LINE
  8
1
  6
ACAD_ISO05W100
 62
5
 10
114.0
 20
-211.0
 11
0.0
 21
-211.0
  0
LINE
  8
1
 62
9
 10
-71.5
 20
-46.8
 11
-68.7
 21
-44.0
  0
LINE
  8
1
 62
9
 10
-68.7
 20
-44.0
 11
-68.7
 21
-58.0
  0
CIRCLE
  8
1
 62
9
 10
-62.4
 20
-47.5
 40
3.5
  0
LINE
  8
1
 62
9
 10
-58.9
 20
-47.5
 11
-58.9
 21
-54.5
  0
ARC
  8
1
 62
9
 10
-62.4
 20
-54.5
 40
3.5
 51
0.0
 50
270.0
  0
LINE
  8
1
 62
9
 10
-62.4
 20
-58.0
 11
-65.9
 21
-58.0
  0
SOLID
  8
10
 62
6
 10
-78.0
 20
-57.25
 11
-78.0
 21
-58.75
 12
-81.0
 22
-58.0
 13
-81.0
 23
-58.0
  0
LINE
  8
10
 62
6
 10
-81.0
 20
-58.0
 11
-62.0
 21
-58.0
  0
SOLID
  8
10
 62
6
 10
-65.0
 20
-58.75
 11
-65.0
 21
-57.25
 12
-62.0
 22
-58.0
 13
-62.0
 23
-58.0
  0
ARC
  8
1
 62
9
 10
-27.5
 20
-47.5
 40
3.5
 50
90.0
 51
180.0
  0
LINE
  8
1
 62
9
 10
-31.0
 20
-47.5
 11
-31.0
 21
-54.5
  0
CIRCLE
  8
1
 62
9
 10
-27.5
 20
-54.5
 40
3.5
  0
ARC
  8
1
 62
9
 10
-17.7
 20
-47.5
 40
3.5
 51
180.0
 50
0.0
  0
LINE
  8
1
 62
9
 10
-14.2
 20
-47.5
 11
-21.2
 21
-58.0
  0
LINE
  8
1
 62
9
 10
-21.2
 20
-58.0
 11
-14.2
 21
-58.0
  0
SOLID
  8
10
 62
6
 10
-59.0
 20
-57.25
 11
-59.0
 21
-58.75
 12
-62.0
 22
-58.0
 13
-62.0
 23
-58.0
  0
LINE
  8
10
 62
6
 10
-62.0
 20
-58.0
 11
0.0
 21
-58.0
  0
SOLID
  8
10
 62
6
 10
-3.0
 20
-58.75
 11
-3.0
 21
-57.25
 12
0.0
 22
-58.0
 13
0.0
 23
-58.0
  0
LINE
  8
1
 62
9
 10
57.0
 20
-46.8
 11
59.8
 21
-44.0
  0
LINE
  8
1
 62
9
 10
59.8
 20
-44.0
 11
59.8
 21
-58.0
  0
LINE
  8
1
 62
9
 10
62.6
 20
-46.8
 11
65.4
 21
-44.0
  0
LINE
  8
1
 62
9
 10
65.4
 20
-44.0
 11
65.4
 21
-58.0
  0
LINE
  8
1
 62
9
 10
68.2
 20
-44.0
 11
68.2
 21
-51.0
  0
LINE
  8
1
 62
9
 10
68.2
 20
-51.0
 11
75.2
 21
-51.0
  0
LINE
  8
1
 62
9
 10
71.7
 20
-48.2
 11
71.7
 21
-58.0
  0
SOLID
  8
10
 62
6
 10
3.0
 20
-57.25
 11
3.0
 21
-58.75
 12
0.0
 22
-58.0
 13
0.0
 23
-58.0
  0
LINE
  8
10
 62
6
 10
0.0
 20
-58.0
 11
114.0
 21
-58.0
  0
SOLID
  8
10
 62
6
 10
111.0
 20
-58.75
 11
111.0
 21
-57.25
 12
114.0
 22
-58.0
 13
114.0
 23
-58.0
  0
ARC
  8
1
 62
9
 10
148.5
 20
-47.5
 40
3.5
 50
90.0
 51
180.0
  0
LINE
  8
1
 62
9
 10
145.0
 20
-47.5
 11
145.0
 21
-54.5
  0
CIRCLE
  8
1
 62
9
 10
148.5
 20
-54.5
 40
3.5
  0
ARC
  8
1
 62
9
 10
158.3
 20
-47.5
 40
3.5
 51
180.0
 50
0.0
  0
LINE
  8
1
 62
9
 10
161.8
 20
-47.5
 11
154.8
 21
-58.0
  0
LINE
  8
1
 62
9
 10
154.8
 20
-58.0
 11
161.8
 21
-58.0
  0
SOLID
  8
10
 62
6
 10
117.0
 20
-57.25
 11
117.0
 21
-58.75
 12
114.0
 22
-58.0
 13
114.0
 23
-58.0
  0
LINE
  8
10
 62
6
 10
114.0
 20
-58.0
 11
176.0
 21
-58.0
  0
SOLID
  8
10
 62
6
 10
173.0
 20
-58.75
 11
173.0
 21
-57.25
 12
176.0
 22
-58.0
 13
176.0
 23
-58.0
  0
LINE
  8
1
 62
9
 10
185.5
 20
-46.8
 11
188.3
 21
-44.0
  0
LINE
  8
1
 62
9
 10
188.3
 20
-44.0
 11
188.3
 21
-58.0
  0
CIRCLE
  8
1
 62
9
 10
194.6
 20
-47.5
 40
3.5
  0
LINE
  8
1
 62
9
 10
198.1
 20
-47.5
 11
198.1
 21
-54.5
  0
ARC
  8
1
 62
9
 10
194.6
 20
-54.5
 40
3.5
 51
0.0
 50
270.0
  0
LINE
  8
1
 62
9
 10
194.6
 20
-58.0
 11
191.1
 21
-58.0
  0
SOLID
  8
10
 62
6
 10
179.0
 20
-57.25
 11
179.0
 21
-58.75
 12
176.0
 22
-58.0
 13
176.0
 23
-58.0
  0
LINE
  8
10
 62
6
 10
176.0
 20
-58.0
 11
195.0
 21
-58.0
  0
SOLID
  8
10
 62
6
 10
192.0
 20
-58.75
 11
192.0
 21
-57.25
 12
195.0
 22
-58.0
 13
195.0
 23
-58.0
  0
ARC
  8
1
 62
9
 10
65.0677
 20
-217.5
 40
3.5
 51
270.0
 50
90.0
  0
LINE
  8
1
 62
9
 10
65.0677
 20
-214.0
 11
75.5677
 21
-221.0
  0
LINE
  8
1
 62
9
 10
75.5677
 20
-221.0
 11
75.5677
 21
-214.0
  0
LINE
  8
1
 62
9
 10
65.0677
 20
-211.2
 11
72.0677
 21
-211.2
  0
ARC
  8
1
 62
9
 10
72.0677
 20
-207.7
 40
3.5
 50
270.0
 51
90.0
  0
LINE
  8
1
 62
9
 10
72.0677
 20
-204.2
 11
65.0677
 21
-204.2
  0
ARC
  8
1
 62
9
 10
65.0677
 20
-207.7
 40
3.5
 50
90.0
 51
270.0
  0
LINE
  8
1
 62
9
 10
65.0677
 20
-211.2
 11
72.0677
 21
-211.2
  0
LINE
  8
1
 62
9
 10
61.5677
 20
-211.2
 11
75.5677
 21
-204.2
  0
LINE
  8
10
 62
6
 10
83.7774
 20
-231.0
 11
73.5677
 21
-231.0
  0
SOLID
  8
10
 62
6
 10
74.8177
 20
-228.0
 11
76.3177
 21
-228.0
 12
75.5677
 22
-231.0
 13
75.5677
 23
-231.0
  0
LINE
  8
10
 62
6
 10
75.5677
 20
-231.0
 11
75.5677
 21
-211.0
  0
LINE
  8
10
 62
6
 10
83.7774
 20
-211.0
 11
73.5677
 21
-211.0
  0
SOLID
  8
10
 62
6
 10
76.3177
 20
-214.0
 11
74.8177
 21
-214.0
 12
75.5677
 22
-211.0
 13
75.5677
 23
-211.0
  0
ARC
  8
1
 62
9
 10
65.0677
 20
-176.5
 40
3.5
 50
180.0
 51
270.0
  0
LINE
  8
1
 62
9
 10
65.0677
 20
-180.0
 11
72.0677
 21
-180.0
  0
CIRCLE
  8
1
 62
9
 10
72.0677
 20
-176.5
 40
3.5
  0
ARC
  8
1
 62
9
 10
65.0677
 20
-166.7
 40
3.5
 51
270.0
 50
90.0
  0
LINE
  8
1
 62
9
 10
65.0677
 20
-163.2
 11
75.5677
 21
-170.2
  0
LINE
  8
1
 62
9
 10
75.5677
 20
-170.2
 11
75.5677
 21
-163.2
  0
LINE
  8
10
 62
6
 10
83.7774
 20
-211.0
 11
73.5677
 21
-211.0
  0
SOLID
  8
10
 62
6
 10
74.8177
 20
-208.0
 11
76.3177
 21
-208.0
 12
75.5677
 22
-211.0
 13
75.5677
 23
-211.0
  0
LINE
  8
10
 62
6
 10
75.5677
 20
-211.0
 11
75.5677
 21
-149.0
  0
LINE
  8
10
 62
6
 10
83.7774
 20
-149.0
 11
73.5677
 21
-149.0
  0
SOLID
  8
10
 62
6
 10
76.3177
 20
-152.0
 11
74.8177
 21
-152.0
 12
75.5677
 22
-149.0
 13
75.5677
 23
-149.0
  0
ARC
  8
1
 62
9
 10
65.0677
 20
-33.5
 40
3.5
 51
270.0
 50
90.0
  0
LINE
  8
1
 62
9
 10
65.0677
 20
-30.0
 11
75.5677
 21
-37.0
  0
LINE
  8
1
 62
9
 10
75.5677
 20
-37.0
 11
75.5677
 21
-30.0
  0
ARC
  8
1
 62
9
 10
65.0677
 20
-23.7
 40
3.5
 51
270.0
 50
90.0
  0
LINE
  8
1
 62
9
 10
65.0677
 20
-20.2
 11
75.5677
 21
-27.2
  0
LINE
  8
1
 62
9
 10
75.5677
 20
-27.2
 11
75.5677
 21
-20.2
  0
LINE
  8
1
 62
9
 10
61.5677
 20
-17.4
 11
68.5677
 21
-17.4
  0
LINE
  8
1
 62
9
 10
68.5677
 20
-17.4
 11
68.5677
 21
-10.4
  0
LINE
  8
1
 62
9
 10
65.7677
 20
-13.9
 11
75.5677
 21
-13.9
  0
LINE
  8
10
 62
6
 10
83.7774
 20
-149.0
 11
73.5677
 21
-149.0
  0
SOLID
  8
10
 62
6
 10
74.8177
 20
-146.0
 11
76.3177
 21
-146.0
 12
75.5677
 22
-149.0
 13
75.5677
 23
-149.0
  0
LINE
  8
10
 62
6
 10
75.5677
 20
-149.0
 11
75.5677
 21
75.0
  0
LINE
  8
10
 62
6
 10
83.7774
 20
75.0
 11
73.5677
 21
75.0
  0
SOLID
  8
10
 62
6
 10
76.3177
 20
72.0
 11
74.8177
 21
72.0
 12
75.5677
 22
75.0
 13
75.5677
 23
75.0
  0
ARC
  8
1
 62
9
 10
65.0677
 20
109.5
 40
3.5
 50
180.0
 51
270.0
  0
LINE
  8
1
 62
9
 10
65.0677
 20
106.0
 11
72.0677
 21
106.0
  0
CIRCLE
  8
1
 62
9
 10
72.0677
 20
109.5
 40
3.5
  0
ARC
  8
1
 62
9
 10
65.0677
 20
119.3
 40
3.5
 51
270.0
 50
90.0
  0
LINE
  8
1
 62
9
 10
65.0677
 20
122.8
 11
75.5677
 21
115.8
  0
LINE
  8
1
 62
9
 10
75.5677
 20
115.8
 11
75.5677
 21
122.8
  0
LINE
  8
10
 62
6
 10
83.7774
 20
75.0
 11
73.5677
 21
75.0
  0
SOLID
  8
10
 62
6
 10
74.8177
 20
78.0
 11
76.3177
 21
78.0
 12
75.5677
 22
75.0
 13
75.5677
 23
75.0
  0
LINE
  8
10
 62
6
 10
75.5677
 20
75.0
 11
75.5677
 21
137.0
  0
LINE
  8
10
 62
6
 10
83.7774
 20
137.0
 11
73.5677
 21
137.0
  0
SOLID
  8
10
 62
6
 10
76.3177
 20
134.0
 11
74.8177
 21
134.0
 12
75.5677
 22
137.0
 13
75.5677
 23
137.0
  0
ARC
  8
1
 62
9
 10
65.0677
 20
150.5
 40
3.5
 51
270.0
 50
90.0
  0
LINE
  8
1
 62
9
 10
65.0677
 20
154.0
 11
75.5677
 21
147.0
  0
LINE
  8
1
 62
9
 10
75.5677
 20
147.0
 11
75.5677
 21
154.0
  0
LINE
  8
1
 62
9
 10
65.0677
 20
156.8
 11
72.0677
 21
156.8
  0
ARC
  8
1
 62
9
 10
72.0677
 20
160.3
 40
3.5
 50
270.0
 51
90.0
  0
LINE
  8
1
 62
9
 10
72.0677
 20
163.8
 11
65.0677
 21
163.8
  0
ARC
  8
1
 62
9
 10
65.0677
 20
160.3
 40
3.5
 50
90.0
 51
270.0
  0
LINE
  8
1
 62
9
 10
65.0677
 20
156.8
 11
72.0677
 21
156.8
  0
LINE
  8
1
 62
9
 10
61.5677
 20
156.8
 11
75.5677
 21
163.8
  0
LINE
  8
10
 62
6
 10
83.7774
 20
137.0
 11
73.5677
 21
137.0
  0
SOLID
  8
10
 62
6
 10
74.8177
 20
140.0
 11
76.3177
 21
140.0
 12
75.5677
 22
137.0
 13
75.5677
 23
137.0
  0
LINE
  8
10
 62
6
 10
75.5677
 20
137.0
 11
75.5677
 21
157.0
  0
LINE
  8
10
 62
6
 10
83.7774
 20
157.0
 11
73.5677
 21
157.0
  0
SOLID
  8
10
 62
6
 10
76.3177
 20
154.0
 11
74.8177
 21
154.0
 12
75.5677
 22
157.0
 13
75.5677
 23
157.0
  0
ARC
  8
1
 62
9
 10
60.5
 20
175.869
 40
3.5
 51
180.0
 50
0.0
  0
LINE
  8
1
 62
9
 10
64.0
 20
175.869
 11
57.0
 21
165.369
  0
LINE
  8
1
 62
9
 10
57.0
 20
165.369
 11
64.0
 21
165.369
  0
LINE
  8
1
 62
9
 10
66.8
 20
179.369
 11
73.8
 21
179.369
  0
LINE
  8
1
 62
9
 10
73.8
 20
179.369
 11
66.8
 21
165.369
  0
LINE
  8
1
 62
9
 10
69.46
 20
172.369
 11
71.14
 21
172.369
  0
ARC
  8
1
 62
9
 10
80.1
 20
175.869
 40
3.5
 50
90.0
 51
180.0
  0
LINE
  8
1
 62
9
 10
76.6
 20
175.869
 11
76.6
 21
168.869
  0
CIRCLE
  8
1
 62
9
 10
80.1
 20
168.869
 40
3.5
  0
SOLID
  8
10
 62
6
 10
-78.0
 20
166.119
 11
-78.0
 21
164.619
 12
-81.0
 22
165.369
 13
-81.0
 23
165.369
  0
LINE
  8
10
 62
6
 10
-81.0
 20
165.369
 11
195.0
 21
165.369
  0
SOLID
  8
10
 62
6
 10
192.0
 20
164.619
 11
192.0
 21
166.119
 12
195.0
 22
165.369
 13
195.0
 23
165.369
  0
LINE
  8
1
 62
9
 10
-109.495
 20
-37.0
 11
-109.495
 21
-33.5
  0
ARC
  8
1
 62
9
 10
-105.995
 20
-33.5
 40
3.5
 51
180.0
 50
0.0
  0
ARC
  8
1
 62
9
 10
-98.995
 20
-33.5
 40
3.5
 51
180.0
 50
0.0
  0
LINE
  8
1
 62
9
 10
-95.495
 20
-33.5
 11
-95.495
 21
-37.0
  0
CIRCLE
  8
1
 62
9
 10
-105.995
 20
-23.7
 40
3.5
  0
CIRCLE
  8
1
 62
9
 10
-98.995
 20
-23.7
 40
3.5
  0
CIRCLE
  8
1
 62
9
 10
-105.995
 20
-13.9
 40
3.5
  0
CIRCLE
  8
1
 62
9
 10
-98.995
 20
-13.9
 40
3.5
  0
SOLID
  8
10
 62
6
 10
-96.245
 20
-228.0
 11
-94.745
 21
-228.0
 12
-95.495
 22
-231.0
 13
-95.495
 23
-231.0
  0
LINE
  8
10
 62
6
 10
-95.495
 20
-231.0
 11
-95.495
 21
157.0
  0
SOLID
  8
10
 62
6
 10
-94.745
 20
154.0
 11
-96.245
 21
154.0
 12
-95.495
 22
157.0
 13
-95.495
 23
157.0
  0
ENDSEC
  0
EOF
