  0
SECTION
  2
HEADER
  9
$ACADVER
  1
AC1009
  0
ENDSEC
  0
SECTION
  2
TABLES
  0
TABLE
  2
LTYPE
  5
5
100
AcDbSymbolTable
 70
     9
  0
LTYPE
  5
12
100
AcDbSymbolTableRecord
100
AcDbLinetypeTableRecord
  2
BYBLOCK
 70
     0
  3

 72
    65
 73
     0
 40
0.0
  0
LTYPE
  5
13
100
AcDbSymbolTableRecord
100
AcDbLinetypeTableRecord
  2
BYLAYER
 70
     0
  3

 72
    65
 73
     0
 40
0.0
  0
LTYPE
  5
14
100
AcDbSymbolTableRecord
100
AcDbLinetypeTableRecord
  2
CONTINUOUS
 70
     0
  3
Solid line
 72
    65
 73
     0
 40
0.0
  0
LTYPE
  5
3C
100
AcDbSymbolTableRecord
100
AcDbLinetypeTableRecord
  2
ACAD_ISO02W100
 70
     0
  3
ISO Strichlinie __ __ __ __ __ __ __ __ __ __ _
 72
    65
 73
     2
 40
15.0
 49
12.0
 49
-3.0
  0
LTYPE
  5
3D
100
AcDbSymbolTableRecord
100
AcDbLinetypeTableRecord
  2
ACAD_ISO07W100
 70
     0
  3
ISO Punktiert . . . . . . . . . . . . . . . . .
 72
    65
 73
     2
 40
3.5
 49
0.5
 49
-3.0
  0
LTYPE
  5
50
100
AcDbSymbolTableRecord
100
AcDbLinetypeTableRecord
  2
ACAD_ISO03W100
 70
     0
  3
ISO Gestrichelt mit Abstand __    __    __    _
 72
    65
 73
     2
 40
30.0
 49
12.0
 49
-18.0
  0
LTYPE
  5
51
100
AcDbSymbolTableRecord
100
AcDbLinetypeTableRecord
  2
ACAD_ISO04W100
 70
     0
  3
ISO Lang gestrichelt punktiert ____ . ____ . __
 72
    65
 73
     4
 40
30.5
 49
24.0
 49
-3.0
 49
0.5
 49
-3.0
  0
LTYPE
  5
52
100
AcDbSymbolTableRecord
100
AcDbLinetypeTableRecord
  2
ACAD_ISO08W100
 70
     0
  3
ISO Lang kurz gestrichelt ____ __ ____ __ ____ 
 72
    65
 73
     4
 40
36.0
 49
24.0
 49
-3.0
 49
6.0
 49
-3.0
  0
LTYPE
  5
53
100
AcDbSymbolTableRecord
100
AcDbLinetypeTableRecord
  2
ACAD_ISO10W100
 70
     0
  3
ISO Strichpunktlinie __ . __ . __ . __ . __ . _
 72
    65
 73
     4
 40
18.5
 49
12.0
 49
-3.0
 49
0.5
 49
-3.0
  0
LTYPE
  5
54
100
AcDbSymbolTableRecord
100
AcDbLinetypeTableRecord
  2
ACAD_ISO05W100
 70
     0
  3
ISO Lang gestrichelt doppelpunktiert ____ .. __
 72
    65
 73
     8
 40
37.5
 49
24.0
 49
-3.0
 49
0.5
 49
-3.0
 49
0.5
 49
-3.0
 49
0.5
 49
-3.0
  0
LTYPE
  5
55
100
AcDbSymbolTableRecord
100
AcDbLinetypeTableRecord
  2
ACAD_ISO06W100
 70
     0
  3
ISO Lang gestrichelt dreifachpunktiert ____ ...
 72
    65
 73
     8
 40
37.5
 49
24.0
 49
-3.0
 49
0.5
 49
-3.0
 49
0.5
 49
-3.0
 49
0.5
 49
-3.0
  0
ENDTAB
  0
ENDSEC
  0
LAYER
  2
1
 70
0
 62
7
  6
CONTINUOUS
  0
SECTION
  2
ENTITIES
  0
LINE
  8
1
 62
3
 10
103.64
 20
0.0
 11
184.392
 21
0.0
  0
LINE
  8
1
 62
3
 10
184.392
 20
0.0
 11
289.543
 21
0.0
  0
LINE
  8
1
 62
3
 10
289.543
 20
0.0
 11
369.0
 21
0.0
  0
LINE
  8
1
 62
3
 10
369.0
 20
0.0
 11
369.0
 21
229.0
  0
LINE
  8
1
 62
3
 10
369.0
 20
229.0
 11
289.543
 21
229.0
  0
LINE
  8
1
 62
3
 10
289.543
 20
229.0
 11
184.392
 21
229.0
  0
LINE
  8
1
 62
3
 10
184.392
 20
229.0
 11
103.64
 21
229.0
  0
LINE
  8
1
 62
3
 10
103.64
 20
229.0
 11
0.0
 21
229.0
  0
LINE
  8
1
 62
3
 10
0.0
 20
229.0
 11
0.0
 21
0.0
  0
LINE
  8
1
 62
3
 10
0.0
 20
0.0
 11
103.64
 21
0.0
  0
LINE
  8
1
 62
6
 10
117.0
 20
229.0
 11
117.0
 21
0.0
  0
LINE
  8
1
 62
6
 10
184.0
 20
229.0
 11
184.0
 21
0.0
  0
LINE
  8
1
 62
6
 10
303.0
 20
229.0
 11
303.0
 21
0.0
  0
CIRCLE
  8
1
 62
3
 10
345.0
 20
198.0
 40
5
  0
CIRCLE
  8
1
 62
3
 10
345.0
 20
31.0
 40
5
  0
LINE
  8
1
 62
9
 10
184.5
 20
247.939
 11
188.0
 21
247.939
  0
ARC
  8
1
 62
9
 10
188.0
 20
244.439
 40
3.5
 51
90.0
 50
270.0
  0
ARC
  8
1
 62
9
 10
188.0
 20
237.439
 40
3.5
 51
90.0
 50
270.0
  0
LINE
  8
1
 62
9
 10
188.0
 20
233.939
 11
184.5
 21
233.939
  0
ARC
  8
1
 62
9
 10
197.8
 20
244.439
 40
3.5
 50
90.0
 51
180.0
  0
LINE
  8
1
 62
9
 10
194.3
 20
244.439
 11
194.3
 21
237.439
  0
CIRCLE
  8
1
 62
9
 10
197.8
 20
237.439
 40
3.5
  0
CIRCLE
  8
1
 62
9
 10
207.6
 20
244.439
 40
3.5
  0
LINE
  8
1
 62
9
 10
211.1
 20
244.439
 11
211.1
 21
237.439
  0
ARC
  8
1
 62
9
 10
207.6
 20
237.439
 40
3.5
 51
0.0
 50
270.0
  0
LINE
  8
1
 62
9
 10
207.6
 20
233.939
 11
204.1
 21
233.939
  0
SOLID
  8
10
 62
6
 10
3.0
 20
234.689
 11
3.0
 21
233.189
 12
0.0
 22
233.939
 13
0.0
 23
233.939
  0
LINE
  8
10
 62
6
 10
0.0
 20
233.939
 11
369.0
 21
233.939
  0
SOLID
  8
10
 62
6
 10
366.0
 20
233.189
 11
366.0
 21
234.689
 12
369.0
 22
233.939
 13
369.0
 23
233.939
  0
ARC
  8
1
 62
9
 10
-20.9743
 20
118.0
 40
3.5
 51
270.0
 50
90.0
  0
LINE
  8
1
 62
9
 10
-20.9743
 20
121.5
 11
-10.4743
 21
114.5
  0
LINE
  8
1
 62
9
 10
-10.4743
 20
114.5
 11
-10.4743
 21
121.5
  0
ARC
  8
1
 62
9
 10
-20.9743
 20
127.8
 40
3.5
 51
270.0
 50
90.0
  0
LINE
  8
1
 62
9
 10
-20.9743
 20
131.3
 11
-10.4743
 21
124.3
  0
LINE
  8
1
 62
9
 10
-10.4743
 20
124.3
 11
-10.4743
 21
131.3
  0
CIRCLE
  8
1
 62
9
 10
-20.9743
 20
137.6
 40
3.5
  0
LINE
  8
1
 62
9
 10
-20.9743
 20
141.1
 11
-13.9743
 21
141.1
  0
ARC
  8
1
 62
9
 10
-13.9743
 20
137.6
 40
3.5
 51
90.0
 50
0.0
  0
LINE
  8
1
 62
9
 10
-10.4743
 20
137.6
 11
-10.4743
 21
134.1
  0
SOLID
  8
10
 62
6
 10
-11.2243
 20
3.0
 11
-9.7243
 21
3.0
 12
-10.4743
 22
0.0
 13
-10.4743
 23
0.0
  0
LINE
  8
10
 62
6
 10
-10.4743
 20
0.0
 11
-10.4743
 21
229.0
  0
SOLID
  8
10
 62
6
 10
-9.7243
 20
226.0
 11
-11.2243
 21
226.0
 12
-10.4743
 22
229.0
 13
-10.4743
 23
229.0
  0
LINE
  8
1
 62
9
 10
58.5
 20
108.2
 11
61.3
 21
111.0
  0
LINE
  8
1
 62
9
 10
61.3
 20
111.0
 11
61.3
 21
97.0
  0
LINE
  8
1
 62
9
 10
64.1
 20
108.2
 11
66.9
 21
111.0
  0
LINE
  8
1
 62
9
 10
66.9
 20
111.0
 11
66.9
 21
97.0
  0
LINE
  8
1
 62
9
 10
69.7
 20
111.0
 11
76.7
 21
111.0
  0
LINE
  8
1
 62
9
 10
76.7
 20
111.0
 11
69.7
 21
97.0
  0
LINE
  8
1
 62
9
 10
72.36
 20
104.0
 11
74.04
 21
104.0
  0
SOLID
  8
10
 62
6
 10
3.0
 20
97.75
 11
3.0
 21
96.25
 12
0.0
 22
97.0
 13
0.0
 23
97.0
  0
LINE
  8
10
 62
6
 10
0.0
 20
97.0
 11
117.0
 21
97.0
  0
SOLID
  8
10
 62
6
 10
114.0
 20
96.25
 11
114.0
 21
97.75
 12
117.0
 22
97.0
 13
117.0
 23
97.0
  0
ARC
  8
1
 62
9
 10
154.0
 20
107.5
 40
3.5
 50
90.0
 51
180.0
  0
LINE
  8
1
 62
9
 10
150.5
 20
107.5
 11
150.5
 21
100.5
  0
CIRCLE
  8
1
 62
9
 10
154.0
 20
100.5
 40
3.5
  0
LINE
  8
1
 62
9
 10
160.3
 20
111.0
 11
167.3
 21
111.0
  0
LINE
  8
1
 62
9
 10
167.3
 20
111.0
 11
160.3
 21
97.0
  0
LINE
  8
1
 62
9
 10
162.96
 20
104.0
 11
164.64
 21
104.0
  0
SOLID
  8
10
 62
6
 10
120.0
 20
97.75
 11
120.0
 21
96.25
 12
117.0
 22
97.0
 13
117.0
 23
97.0
  0
LINE
  8
10
 62
6
 10
117.0
 20
97.0
 11
184.0
 21
97.0
  0
SOLID
  8
10
 62
6
 10
181.0
 20
96.25
 11
181.0
 21
97.75
 12
184.0
 22
97.0
 13
184.0
 23
97.0
  0
LINE
  8
1
 62
9
 10
243.5
 20
108.2
 11
246.3
 21
111.0
  0
LINE
  8
1
 62
9
 10
246.3
 20
111.0
 11
246.3
 21
97.0
  0
LINE
  8
1
 62
9
 10
249.1
 20
108.2
 11
251.9
 21
111.0
  0
LINE
  8
1
 62
9
 10
251.9
 20
111.0
 11
251.9
 21
97.0
  0
CIRCLE
  8
1
 62
9
 10
258.2
 20
107.5
 40
3.5
  0
LINE
  8
1
 62
9
 10
261.7
 20
107.5
 11
261.7
 21
100.5
  0
ARC
  8
1
 62
9
 10
258.2
 20
100.5
 40
3.5
 51
0.0
 50
270.0
  0
LINE
  8
1
 62
9
 10
258.2
 20
97.0
 11
254.7
 21
97.0
  0
SOLID
  8
10
 62
6
 10
187.0
 20
97.75
 11
187.0
 21
96.25
 12
184.0
 22
97.0
 13
184.0
 23
97.0
  0
LINE
  8
10
 62
6
 10
184.0
 20
97.0
 11
303.0
 21
97.0
  0
SOLID
  8
10
 62
6
 10
300.0
 20
96.25
 11
300.0
 21
97.75
 12
303.0
 22
97.0
 13
303.0
 23
97.0
  0
ARC
  8
1
 62
9
 10
339.5
 20
107.5
 40
3.5
 50
90.0
 51
180.0
  0
LINE
  8
1
 62
9
 10
336.0
 20
107.5
 11
336.0
 21
100.5
  0
CIRCLE
  8
1
 62
9
 10
339.5
 20
100.5
 40
3.5
  0
ARC
  8
1
 62
9
 10
349.3
 20
107.5
 40
3.5
 50
90.0
 51
180.0
  0
LINE
  8
1
 62
9
 10
345.8
 20
107.5
 11
345.8
 21
100.5
  0
CIRCLE
  8
1
 62
9
 10
349.3
 20
100.5
 40
3.5
  0
SOLID
  8
10
 62
6
 10
306.0
 20
97.75
 11
306.0
 21
96.25
 12
303.0
 22
97.0
 13
303.0
 23
97.0
  0
LINE
  8
10
 62
6
 10
303.0
 20
97.0
 11
369.0
 21
97.0
  0
SOLID
  8
10
 62
6
 10
366.0
 20
96.25
 11
366.0
 21
97.75
 12
369.0
 22
97.0
 13
369.0
 23
97.0
  0
LINE
  8
1
 62
9
 10
312.0
 20
213.5
 11
312.0
 21
217.0
  0
ARC
  8
1
 62
9
 10
315.5
 20
217.0
 40
3.5
 51
180.0
 50
0.0
  0
ARC
  8
1
 62
9
 10
322.5
 20
217.0
 40
3.5
 51
180.0
 50
0.0
  0
LINE
  8
1
 62
9
 10
326.0
 20
217.0
 11
326.0
 21
213.5
  0
LINE
  8
1
 62
9
 10
314.8
 20
223.3
 11
312.0
 21
226.1
  0
LINE
  8
1
 62
9
 10
312.0
 20
226.1
 11
326.0
 21
226.1
  0
LINE
  8
10
 62
6
 10
336.0
 20
198.0
 11
324.0
 21
198.0
  0
SOLID
  8
10
 62
6
 10
325.25
 20
201.0
 11
326.75
 21
201.0
 12
326.0
 22
198.0
 13
326.0
 23
198.0
  0
LINE
  8
10
 62
6
 10
326.0
 20
198.0
 11
326.0
 21
229.0
  0
LINE
  8
10
 62
6
 10
336.0
 20
229.0
 11
324.0
 21
229.0
  0
SOLID
  8
10
 62
6
 10
326.75
 20
226.0
 11
325.25
 21
226.0
 12
326.0
 22
229.0
 13
326.0
 23
229.0
  0
LINE
  8
1
 62
9
 10
314.8
 20
114.5
 11
312.0
 21
117.3
  0
LINE
  8
1
 62
9
 10
312.0
 20
117.3
 11
326.0
 21
117.3
  0
ARC
  8
1
 62
9
 10
315.5
 20
123.6
 40
3.5
 50
180.0
 51
270.0
  0
LINE
  8
1
 62
9
 10
315.5
 20
120.1
 11
322.5
 21
120.1
  0
CIRCLE
  8
1
 62
9
 10
322.5
 20
123.6
 40
3.5
  0
LINE
  8
1
 62
9
 10
312.0
 20
129.9
 11
312.0
 21
136.9
  0
LINE
  8
1
 62
9
 10
312.0
 20
136.9
 11
326.0
 21
129.9
  0
LINE
  8
1
 62
9
 10
319.0
 20
132.56
 11
319.0
 21
134.24
  0
LINE
  8
10
 62
6
 10
336.0
 20
31.0
 11
324.0
 21
31.0
  0
SOLID
  8
10
 62
6
 10
325.25
 20
34.0
 11
326.75
 21
34.0
 12
326.0
 22
31.0
 13
326.0
 23
31.0
  0
LINE
  8
10
 62
6
 10
326.0
 20
31.0
 11
326.0
 21
198.0
  0
LINE
  8
10
 62
6
 10
336.0
 20
198.0
 11
324.0
 21
198.0
  0
SOLID
  8
10
 62
6
 10
326.75
 20
195.0
 11
325.25
 21
195.0
 12
326.0
 22
198.0
 13
326.0
 23
198.0
  0
LINE
  8
1
 62
9
 10
312.0
 20
15.5
 11
312.0
 21
19.0
  0
ARC
  8
1
 62
9
 10
315.5
 20
19.0
 40
3.5
 51
180.0
 50
0.0
  0
ARC
  8
1
 62
9
 10
322.5
 20
19.0
 40
3.5
 51
180.0
 50
0.0
  0
LINE
  8
1
 62
9
 10
326.0
 20
19.0
 11
326.0
 21
15.5
  0
LINE
  8
1
 62
9
 10
314.8
 20
25.3
 11
312.0
 21
28.1
  0
LINE
  8
1
 62
9
 10
312.0
 20
28.1
 11
326.0
 21
28.1
  0
LINE
  8
10
 62
6
 10
336.0
 20
0.0
 11
324.0
 21
0.0
  0
SOLID
  8
10
 62
6
 10
325.25
 20
3.0
 11
326.75
 21
3.0
 12
326.0
 22
0.0
 13
326.0
 23
0.0
  0
LINE
  8
10
 62
6
 10
326.0
 20
0.0
 11
326.0
 21
31.0
  0
LINE
  8
10
 62
6
 10
336.0
 20
31.0
 11
324.0
 21
31.0
  0
SOLID
  8
10
 62
6
 10
326.75
 20
28.0
 11
325.25
 21
28.0
 12
326.0
 22
31.0
 13
326.0
 23
31.0
  0
ARC
  8
1
 62
9
 10
360.5
 20
192.5
 40
3.5
 51
180.0
 50
0.0
  0
LINE
  8
1
 62
9
 10
364.0
 20
192.5
 11
357.0
 21
182.0
  0
LINE
  8
1
 62
9
 10
357.0
 20
182.0
 11
364.0
 21
182.0
  0
LINE
  8
1
 62
9
 10
366.8
 20
196.0
 11
366.8
 21
189.0
  0
LINE
  8
1
 62
9
 10
366.8
 20
189.0
 11
373.8
 21
189.0
  0
LINE
  8
1
 62
9
 10
370.3
 20
191.8
 11
370.3
 21
182.0
  0
LINE
  8
10
 62
6
 10
345.0
 20
192.0
 11
345.0
 21
180.0
  0
SOLID
  8
10
 62
6
 10
348.0
 20
182.75
 11
348.0
 21
181.25
 12
345.0
 22
182.0
 13
345.0
 23
182.0
  0
LINE
  8
10
 62
6
 10
345.0
 20
182.0
 11
369.0
 21
182.0
  0
LINE
  8
10
 62
6
 10
369.0
 20
192.0
 11
369.0
 21
180.0
  0
SOLID
  8
10
 62
6
 10
366.0
 20
181.25
 11
366.0
 21
182.75
 12
369.0
 22
182.0
 13
369.0
 23
182.0
  0
LINE
  8
1
 62
9
 10
-16.5
 20
235.0
 11
-9.5
 21
235.0
  0
ARC
  8
1
 62
9
 10
-9.5
 20
238.5
 40
3.5
 50
270.0
 51
90.0
  0
LINE
  8
1
 62
9
 10
-9.5
 20
242.0
 11
-16.5
 21
242.0
  0
ARC
  8
1
 62
9
 10
-16.5
 20
238.5
 40
3.5
 50
90.0
 51
270.0
  0
LINE
  8
1
 62
9
 10
-16.5
 20
235.0
 11
-9.5
 21
235.0
  0
LINE
  8
1
 62
9
 10
-6.0
 20
244.8
 11
-20.0
 21
244.8
  0
LINE
  8
1
 62
9
 10
-20.0
 20
244.8
 11
-20.0
 21
248.3
  0
ARC
  8
1
 62
9
 10
-16.5
 20
248.3
 40
3.5
 51
180.0
 50
0.0
  0
LINE
  8
1
 62
9
 10
-13.0
 20
248.3
 11
-13.0
 21
244.8
  0
LINE
  8
1
 62
9
 10
-13.0
 20
244.8
 11
-6.0
 21
251.8
  0
LINE
  8
1
 62
9
 10
156.5
 20
105.0
 11
163.5
 21
105.0
  0
ARC
  8
1
 62
9
 10
163.5
 20
108.5
 40
3.5
 50
270.0
 51
90.0
  0
LINE
  8
1
 62
9
 10
163.5
 20
112.0
 11
156.5
 21
112.0
  0
ARC
  8
1
 62
9
 10
156.5
 20
108.5
 40
3.5
 50
90.0
 51
270.0
  0
LINE
  8
1
 62
9
 10
156.5
 20
105.0
 11
163.5
 21
105.0
  0
LINE
  8
1
 62
9
 10
167.0
 20
114.8
 11
153.0
 21
114.8
  0
LINE
  8
1
 62
9
 10
153.0
 20
114.8
 11
153.0
 21
118.3
  0
ARC
  8
1
 62
9
 10
156.5
 20
118.3
 40
3.5
 51
180.0
 50
0.0
  0
LINE
  8
1
 62
9
 10
160.0
 20
118.3
 11
160.0
 21
114.8
  0
LINE
  8
1
 62
9
 10
160.0
 20
114.8
 11
167.0
 21
121.8
  0
LINE
  8
1
 62
9
 10
153.0
 20
130.0
 11
153.0
 21
121.25
  0
ARC
  8
1
 62
9
 10
149.5
 20
121.25
 40
3.5
 51
0.0
 50
180.0
  0
LINE
  8
1
 62
9
 10
153.0
 20
129.86
 11
149.36
 21
129.86
  0
ARC
  8
1
 62
9
 10
149.36
 20
126.5
 40
3.36
 50
90.0
 51
270.0
  0
LINE
  8
1
 62
9
 10
149.36
 20
123.14
 11
153.0
 21
123.14
  0
LINE
  8
1
 62
9
 10
155.8
 20
126.5
 11
162.8
 21
126.5
  0
ARC
  8
1
 62
9
 10
159.3
 20
126.5
 40
3.50442
 50
0.0
 51
315.0
  0
ARC
  8
1
 62
9
 10
170.5
 20
133.5
 40
3.5
 50
90.0
 51
180.0
  0
LINE
  8
1
 62
9
 10
167.0
 20
133.5
 11
167.0
 21
123.0
  0
LINE
  8
1
 62
9
 10
165.6
 20
130.0
 11
168.4
 21
130.0
  0
LINE
  8
1
 62
9
 10
173.3
 20
123.0
 11
173.3
 21
130.0
  0
LINE
  8
1
 62
9
 10
173.3
 20
128.25
 11
175.05
 21
130.0
  0
LINE
  8
1
 62
9
 10
181.35
 20
130.7
 11
181.35
 21
132.1
  0
LINE
  8
1
 62
9
 10
183.45
 20
130.7
 11
183.45
 21
132.1
  0
LINE
  8
1
 62
9
 10
185.27
 20
123.0
 11
184.85
 21
123.42
  0
LINE
  8
1
 62
9
 10
184.85
 20
123.42
 11
184.85
 21
130.0
  0
LINE
  8
1
 62
9
 10
184.85
 20
130.0
 11
184.85
 21
129.86
  0
LINE
  8
1
 62
9
 10
184.85
 20
129.86
 11
181.21
 21
129.86
  0
ARC
  8
1
 62
9
 10
181.21
 20
126.5
 40
3.36
 50
90.0
 51
270.0
  0
LINE
  8
1
 62
9
 10
181.21
 20
123.14
 11
184.57
 21
123.14
  0
LINE
  8
1
 62
9
 10
184.57
 20
123.14
 11
184.85
 21
123.42
  0
LINE
  8
1
 62
9
 10
194.65
 20
130.0
 11
189.4
 21
130.0
  0
ARC
  8
1
 62
9
 10
189.4
 20
128.25
 40
1.75
 50
90.0
 51
270.0
  0
LINE
  8
1
 62
9
 10
189.4
 20
126.5
 11
192.9
 21
126.5
  0
ARC
  8
1
 62
9
 10
192.9
 20
124.75
 40
1.75
 51
90.0
 50
270.0
  0
LINE
  8
1
 62
9
 10
192.9
 20
123.0
 11
187.65
 21
123.0
  0
LINE
  8
1
 62
9
 10
198.85
 20
137.0
 11
198.85
 21
123.0
  0
LINE
  8
1
 62
9
 10
197.45
 20
130.0
 11
200.25
 21
130.0
  0
ENDSEC
  0
EOF
